<svg id="Layer_1" data-name="Layer 1" xmlns="http://www.w3.org/2000/svg" viewBox="0 0 843.43 458.37"><defs><style>.cls-1{font-size:300px;font-family:SegoeUI-Light, Segoe UI;letter-spacing:-0.07em;}.cls-2{letter-spacing:-0.05em;}.cls-3{fill:#202020;}</style></defs><title>rendy</title><text class="cls-1" transform="translate(0 255.03)">r<tspan class="cls-2" x="78.02" y="0">endy</tspan></text><path d="M874.23,460.36a1.5,1.5,0,0,0,0-3,1.5,1.5,0,0,0,0,3Z" transform="translate(-32.26 -1.99)"/><path class="cls-3" d="M805.66,279.35c.39-.1.17-.29-.91-.23l-.76.35Z" transform="translate(-32.26 -1.99)"/><path class="cls-3" d="M798.4,278.88c-1.26.19-2.72.5-1.89.79,1.25-.35,1.55-.22,2.9-.63,1.08-.06,1.88.07,1.7.2a16.21,16.21,0,0,0,2.25-.18,17.71,17.71,0,0,0-5,0C797.93,279,798.31,279,798.4,278.88Z" transform="translate(-32.26 -1.99)"/><path class="cls-3" d="M693.05,280.88l.68,0A4.79,4.79,0,0,0,693.05,280.88Z" transform="translate(-32.26 -1.99)"/><path class="cls-3" d="M627.79,282.72a2,2,0,0,0,.72-.09C628.05,282.66,627.67,282.7,627.79,282.72Z" transform="translate(-32.26 -1.99)"/><path class="cls-3" d="M616.63,282.74h.66A2.81,2.81,0,0,0,616.63,282.74Z" transform="translate(-32.26 -1.99)"/><path class="cls-3" d="M693.05,280.88l-1.75-.06C691.18,280.93,692.2,280.88,693.05,280.88Z" transform="translate(-32.26 -1.99)"/><path class="cls-3" d="M783.89,280c.37,0,.67-.06,1-.11l-.89.05Z" transform="translate(-32.26 -1.99)"/><path class="cls-3" d="M721.81,279.82h.53a2.84,2.84,0,0,0,.44-.15Z" transform="translate(-32.26 -1.99)"/><path class="cls-3" d="M743.89,279.23a1.19,1.19,0,0,0-.85.41,3.36,3.36,0,0,1,1.08-.22C744.13,279.37,744.06,279.3,743.89,279.23Z" transform="translate(-32.26 -1.99)"/><path class="cls-3" d="M778.92,278.94l.62-.05Z" transform="translate(-32.26 -1.99)"/><path class="cls-3" d="M706,280.18a.38.38,0,0,0-.21-.1S705.88,280.15,706,280.18Z" transform="translate(-32.26 -1.99)"/><path class="cls-3" d="M89.36,315.84s0,0,0,0S89.19,315.85,89.36,315.84Z" transform="translate(-32.26 -1.99)"/><path class="cls-3" d="M63.73,316.54l.35,0c0-.06.07-.12.06-.17Z" transform="translate(-32.26 -1.99)"/><path class="cls-3" d="M596.23,283.13h.09C596.86,283.08,596.55,283.09,596.23,283.13Z" transform="translate(-32.26 -1.99)"/><path class="cls-3" d="M409.14,291.77c2.13.14-3.43.51-.22.62C408.61,292.29,411.79,291.8,409.14,291.77Z" transform="translate(-32.26 -1.99)"/><path class="cls-3" d="M783.32,280l-.91,0A7.82,7.82,0,0,0,783.32,280Z" transform="translate(-32.26 -1.99)"/><path class="cls-3" d="M408.92,292.39Z" transform="translate(-32.26 -1.99)"/><path class="cls-3" d="M549.27,285.12a1.8,1.8,0,0,0,.48.11S549.62,285.17,549.27,285.12Z" transform="translate(-32.26 -1.99)"/><path class="cls-3" d="M584.27,284.14h0Z" transform="translate(-32.26 -1.99)"/><path class="cls-3" d="M531.12,286.26a9.64,9.64,0,0,0-1.28,0,1.06,1.06,0,0,0,.2,0A4.29,4.29,0,0,1,531.12,286.26Z" transform="translate(-32.26 -1.99)"/><path class="cls-3" d="M512.21,287.1l.35,0,.6,0Z" transform="translate(-32.26 -1.99)"/><path class="cls-3" d="M146.67,311.16a4.38,4.38,0,0,1-.89-.18C146.09,311.15,143.32,311.44,146.67,311.16Z" transform="translate(-32.26 -1.99)"/><path class="cls-3" d="M783.88,279.82a1.19,1.19,0,0,1-.56.13l.63,0S784,279.84,783.88,279.82Z" transform="translate(-32.26 -1.99)"/><path class="cls-3" d="M530.44,288.51l-3,.08C528.28,288.59,529.37,288.55,530.44,288.51Z" transform="translate(-32.26 -1.99)"/><path class="cls-3" d="M282.08,301.57l-.69.08A4,4,0,0,0,282.08,301.57Z" transform="translate(-32.26 -1.99)"/><path class="cls-3" d="M518.53,289a15.66,15.66,0,0,0-1.7-.11,2,2,0,0,0-.35.08Z" transform="translate(-32.26 -1.99)"/><path class="cls-3" d="M145.78,311Z" transform="translate(-32.26 -1.99)"/><path class="cls-3" d="M126.09,313.18c2.85-.22,1.31-.47,1.9-.73,3.4-.37,1.6.15,2.77.25,2.12-.26,3.73-.73,5.32-.84.12.05.43.05.07.16,2.23-.47,6.68-.54,9.28-1.11a1.13,1.13,0,0,1,.35.07c-.44-.16-.52-.34-.45-.48,1.28-.1,2.36-.42,2.86-.21a3.24,3.24,0,0,0-1.2.26l1.33-.21c1.24.25-1.82.26-1.8.52,2.61-.32,5.63-.84,7.65-.9.44.3-4.68.48-2,.57l-3.11.11c2.41.35-1.89.11.34.51,4.09-.21,4.55-.53,8.63-.74.9-.25-.33-.25.58-.51,5.76-.76,4.62.52,8.84-.25a10.37,10.37,0,0,1,4.53-.76l-1,.46c4-.25,2.22-.72,6.38-.76-.73.2-3.1.35-2.5.35,2.71.11,1.88-.35,3.94-.51l.46.31c4.2-.36,8.82-.95,13.47-1.35-.25.12-1,.28.06.31,5.87-.61,12.55-.89,18.24-1.07l2.15-.44c.5,0,.94.06.4.16,2.22,0,.1-.19,1.15-.38,1.26-.11,1.68,0,.89.19a136.39,136.39,0,0,1,15.2-1.28L230,305c3.21-.11,3.57-.86,6.56-.79l-.57.09c6.95-.36,14.61-1.16,19.94-1.05,1-.49,6.89-.27,7.3-.88,4,0,2.86.21,8.46,0,1.49-.07,2.2-.51,4-.7l.06.31,2.49-.49,1.36.28,1.72-.19c-.69,0-1.47,0-1.37-.14a31.24,31.24,0,0,1,6.68-.06l6.37-.68a10.36,10.36,0,0,1-2,.38c3.39-.54.64.28,3.75-.21-.42,0,.21-.2.28-.26a73.82,73.82,0,0,0,7.75-.37l-.5.24c4.75-.24,10-.71,15.32-1-1.91,0-1.5-.37.06-.5l.65.28c1-.26-1.64,0,.41-.39,2-.09,1.36.29.23.46l2.41-.26c.15.09-.42.17-.56.31,1-.27,4.2.07,5.61-.37l.14.09c5.32-.33,7.73-.59,12.07-.87.06-.28,1.76-.33,3-.63,3.19-.1,6.74-.08,10.58-.32,2.69-.3.78-.28,2-.52.21.24,4.05,0,2.07.3,4.61-.31,5.88-.39,11.7-.93-.64-.07-1.35-.07-1-.18,1.06-.11,2.41,0,2.27.1l-.28,0c6.52-.76,15.15-.12,20.33-.95l-.29.05,5.38-.57c2.49-.09-1.48.27.37.33,5.81-.73,9.22-.42,14-1,3.76.55,13.19-.76,18.23-.54l-.3-.17a9.19,9.19,0,0,1,2.53,0c-.14-.13-1.42-.08-.62-.22,11-.8,22.69-.87,34-1.27,4.12-.15,2.29-1,7.5-.87l-1.46.41c8.3-.82,17-.81,25.12-1.51a4.75,4.75,0,0,1-1.28.24,27.62,27.62,0,0,0,6.37-.47c1.27,0,.31.16,1.09.22,1.73.07,4.31-.5,5.24-.3.16,0-.48.1-.79.13,1.11-.16,5.23-.2,4.14-.43,3.06,0,5.84-.39,8.29-.33,1.57-.38,5.23-.09,5.72-.55-.2.46,5.37.12,7.29-.17-.64.17,1.69.08.94.3,2.2-.1,4.22-.27,3.82-.48,4.09.37,8.15-.77,10.46-.17,6.54-.51,12.59-.92,18.48-1.27-.19.46-6.51.31-6.24.77,5.58-.41,8.79-.93,14.34-1.05,1.43,0-.81.23-1.29.33,5.57-.42,10.8-.37,15.75-.8a5.06,5.06,0,0,1-1.05.16c1-.05,2.28,0,2.16-.22l-1,.09c-1.57-.24,3.87-.76,4-.93-1.64.65,4.91,0,2.3.81.64-.06,1.44-.19,1.29-.32,1,0,1.27.07.3.26,3.51-.24,2.25-.41,5.43-.52,0,.1-.65.16-1,.29a34.36,34.36,0,0,1,5.9-.52c-.16.07.15.13-.65.16,4.61-.2,7.84-.81,12.91-.8-1.48.48,1.73.07,2,.44l2.71-.21-1.09-.14c2.38-.08,4.48-.42,6.53-.36l-1.77.21,4.47-.22-2.54-.05c2.41-.28-.27-.47,2.91-.47-.65.06,2.38-.07,3.63.11h0a24.87,24.87,0,0,1,4.15-.29c.46.11-.35.43,0,.5,1.15-.35,5.58-.27,7-.65-.49.09-.51.29-.34.32l1-.28c1.11,0,1.27.07,1.1.24,3.32-.07-1.07-.44,2.88-.37-.31,0-.16.07-.81.13,4,0,7.65-.42,11.29-.41,1.08.34-3.18.2-1.94.47,5.25-.24,10.85-.8,15.93-.85h-1c.69-.55,3.79.15,6.35-.17-.63,0-.82.31-.65.25,3.48,0,7.11-.33,12.37-.65l-.65.15c2,.07,5.4-.08,7.61-.08.66-.16,1.92-.17,1.15-.35,6.84.59,13-.8,19.08-.29-.73,0-1.73.16-1.15.15l5.15-.26c-.41-.22-.68-.12-1.76-.27a19.72,19.72,0,0,1,3.38-.33c-2.32.21,0,.37,1,.48-.17-.07.17-.16.09-.23,2.7.35.44-.47,4.12-.29l-.19.13c1.37-.1,2.64-.29,4.12-.29.63.25-1.46.16-1.55.38,2.09-.06,4.11-.61,6-.39-.88.1-2.16.13-3,.23a21.73,21.73,0,0,0,3.83.19h-.15l3.53.05-.9-.06c2.59-.76,5.31-.26,8.81-.8-3.4.51-.56.26-.81.57.9.06,2.27.12,1.88.22,1.65-.29,2.78.12,5.11-.29.11.09,1.78,0,1.41.22,2.16-.13-.51-.16-.33-.29,3.32-.42,7.83.24,12.61-.32,4.13-.27,4.88-.62,8.71-.86,1.3.13-1.05.38-1.05.38a41.93,41.93,0,0,0,5.63-.11c-.4.09,0,.16.61.25,1.58-.05,1.05-.37,3.13-.27a8.69,8.69,0,0,1-1.56.42c1.85-.13,3.69-.35,5.61-.47.51.16-1.16.28-1.83.4a43.93,43.93,0,0,0,6.26-.55l-1.39-.07c.79,0,.41.23-.17.29a4.77,4.77,0,0,1-2.78-.14l1.37-.09c-1.42-.54-5.51.21-8.27.23l1.15-.44-2.83.4c-.6-.09-1-.32.34-.41-2-.16-1.75.19-3.45,0-.19,0-.1-.05.07-.07l-1.93.16c.37-.09-.33-.28.86-.25-3.48-.17-5.59.43-6.9.14l.29,0c-4.82.24-.46.31-4.07.75l-2.44-.71-.47.32c-.5,0-1.48,0-1.3-.13-1.85.25.32.13-.75.34-2.4-.23-6.59.28-7.14-.19-.86.25,2.29.12-.26.35-.74-.51-2.95.16-5.14,0,.67-.28,2.74-.19.55-.38-1.31.49-4.26,0-6.1.14-.08.37-4,.25-7.09.45.19-.13-5.82-.06-8.7-.12l.08-.06c-.54.38-3.51.38-5.67.51.08-.22.47-.32,1.63-.45l-2,.06a12.68,12.68,0,0,1-2.42.28l.5-.29c-2.7.08-5.43.45-8.91.37-.19.26,2.78.63-.89.91-.14-.14-.28-.37.68-.46a11.35,11.35,0,0,1-1.76.11l1.46-.27c-1.58-.06-.82.21-2.09.23,0-.2-.94-.12-.76-.28a15,15,0,0,0,1.59,0,24.62,24.62,0,0,1-3.73-.19c.12.1,0,.26-1,.32-2.7.09-.93-.21-2.51-.27-.65.16-2.38.06-2.42.36a3.16,3.16,0,0,1-1.25-.18c-1.39.17-6.53.22-4.94.49h.36l-.23,0h0c-4.58.42-9.53.1-14.07.36v-.1c-2.71.19-6,.24-8,.51-.81,0-1.9-.13-1.56-.25a41.9,41.9,0,0,1-5.31.18c2.08-.24-.72-.14,2.14-.2a36.54,36.54,0,0,0-6.21.23c1-.29-2-.25-3.32-.13l1.9.11c-1.44.09-2.7.11-4,.13l.68-.36c-5.53-.22-9.93,1-14.15.48-1.45.28,3,.06,1.7.38-2.54,0-5.2-.35-6-.33-3.48-.07-3.23.59-6.87.59.47.1.92.4-1.8.6-2.54,0-3.14-.39-1.54-.54.61,0,.91,0,.88,0,.82-.07,1.9-.16.89-.25l-.33.13c-1.26-.08-4.76,0-3.94-.18-1.92.18-.82.22.61.24-3.27-.06-5.09.15-8.45.16.54,0,1,.17.5.19-4.92,0-2.16.3-5.49.48-1.9-.11.67-.46-2.68-.18-2.06-.05-.45-.3.36-.43a59.64,59.64,0,0,1-7.46.08l1.61-.15c-1,.09-1.75.12-2.56.15l.93.2a6.16,6.16,0,0,1-1.73-.08c-1,.2.76.37-1.17.65-1.26-.07-3.83.28-4.28,0,4,0-.45-.3,2.91-.48a23.64,23.64,0,0,1-2.39.08c-.14,0,.13-.07.39-.09-3.8-.14-1.73.42-5.66.55.49-.19-.92-.3-1.56-.24,1.58-.05.77.27-.68.46a34.69,34.69,0,0,0-4.06.24h1.51a20.36,20.36,0,0,1-3.52.34c-.15-.14,1.59-.16,1-.2-1.94.39-4.42-.16-7.14.15-1.26-.07-.13-.32-1.24-.37-3,.35-3.31-.11-6.51.21.94.2,1.09.14-1.15.46l5.26-.38-3.37.48c1.59-.06,3.35-.28,4.3-.28-1.6.26-1.44.19-.67.36-2.19-.27-4.3.38-6.82.25l.05-.6c-3.79-.11-6.7.58-11.62.63l1.58,0a42,42,0,0,1-4.61.32c.14-.21-.86-.24-1.54-.33.09.14-3.59.13-4,.54l-2.2-.17c-4,.06-4.5.75-8.31.84,1.13-.26-.6-.33,1.94-.59a8.8,8.8,0,0,0-2.43.2c-.75-.09-3.51.41-4.69.27a6.5,6.5,0,0,1-2.13.36c-.16,0,0-.09,0-.09s-2.23.23-1,.39c-3.94-.44-11,.54-14.38.16-2.77.19-6.11.41-8.63.53.16-.06,0-.09.48-.1-3.48,0-2.11.67-6.07.64-2-.23,2.09-.27.82-.33-.58-.63-4.77.3-7.44,0l.64-.06c-2.05-.13-4.95.46-8.28.57,0,0,.16-.07,0-.1-2.26.43-6.56.75-9.75,1,1-.31,1.44-.21.83-.44-1.44.11.43.4-2.42.61-.94-.09-3-.11-3.29-.38l2.69-.14c-1.4-.29-3.49.18-4.91.19l.17-.17c-4.13.26-4.17.65-8.62.84l.47.1c-2.41.51-2-.12-4.45.29l-.76-.36c-1.6.17-5.59.66-8.46.87,1.61-.37,5-.69,7-1a54.51,54.51,0,0,0-6.21.53,14.34,14.34,0,0,1,2.07-.18,48.62,48.62,0,0,1-7.65.83c.52-.79-8.26.21-10.59-.25-5.58.58-11.11.47-17.63.86,2.34.48-1.91.12-1.47.71a16.05,16.05,0,0,1-2.24.11l-4.62-.12c-1.1-.12,1.44-.21,1.29-.34-3.33.13-1.41-.19-3.62-.23.46.19-1.14.37-3,.39l2.69.14c-4.63.57-4.05-.3-8.72.27l1.47-.27c-2.39.24-8.87.47-11.19,1.1-.43,0-1-.18.05-.28-5.75.25-12.76,1.25-17.24,1.21l.43-.18a16.63,16.63,0,0,1-3.2.32c.06-.07.42-.18-.08-.16a32.33,32.33,0,0,1-4.25.42l1.2-.24c-5.61.13-8.57.9-13.27,1.28,0-.44-4.43-.34-6.63-.27l.07-.07c-6.53.35-11.06,1-17.09,1.59-3.78-.25-12.71.58-18.76.68.93,0-.13.35-1.19.46-1.42,0-3.89.54-3.7.13l.51,0c-1.09-.32-4-.05-6.26.09l-.34.55c-6-.37-15.53,1.3-18.82.83-1.42.22-3.19.34-4.6.56l.05-.28c-4,.18-5.95.28-10.85.67l1-.27c-2.76.16-3.43,1-6,1.22l-.79-.37c-4.83.32-9.74.3-14.48,1,.08-.07.21-.2,1-.27-2.27.15-8.81.33-7.94.85-.08-.38-5,.31-7.58.65l.39-.3a27.3,27.3,0,0,1-5.3.92c-.73,0-.66-.18.32-.17-2.44,0-1.88.39-4.83.45l1.09-.26a13.73,13.73,0,0,0-3.65.54,19.29,19.29,0,0,1-5.13,0,9.6,9.6,0,0,1-3.15.51c-.21-.08.32-.18.59-.23-4.19.1-6.18.78-9.07.71a.74.74,0,0,0-.49-.13c3.31-.23,6-.42,5.73-.38,0-.25-2.7-.1-.59-.61a70.25,70.25,0,0,1-8.4,1.11,1.7,1.7,0,0,1-.35-.06l.27-.05a13.19,13.19,0,0,0-1.65.16c-.83,0-1.37,0-2.17.08a29.53,29.53,0,0,0-4.41.2c.13.28-1.62.36,0,.47-.22,0,.24-.05,1.13-.13.2,0,.44,0,.57-.07l-.09,0,3.32-.26a14.13,14.13,0,0,1-3.63.37c-.67.23-1.41.47-1.83.59-1.85-.25-5.39-.21-5.9-.41-4.06.46-9.59.81-12.12,1.53a4,4,0,0,1-1.78-.11c.67-.1,1.46-.15,1.82-.25-2.31.3-6.86.55-7.39,1-2.93.05,1.62-.46-2.39-.1l.53-.15c-7.93,0-12.75,1.93-21.56,1.86a4.33,4.33,0,0,1,1,.05c-10,.45-20.53,1.89-30.41,2.17a21.16,21.16,0,0,0-4.78.7l-.63-.25-2.89.58c-4.12.6-7.23-.15-12.43.76l.7.15c-1.89.11-6,.6-5.66.35a3.09,3.09,0,0,1-1.34.21l-.07-.15-4.6.65c-3.59.18.51-.67-4.72-.28-1.94.22-5.5.91-4.76,1a5.45,5.45,0,0,1,2.08.09l-1.77.23c-.28.49-1.61,1.07,2.78,1l3-.53,1,.14-2.56.23a10.78,10.78,0,0,0,3.39-.39,4,4,0,0,0,1.3.15l2.94-.69c.38.15-1.3.47.71.4,1.38-.32-1.38-.29.93-.62a6.23,6.23,0,0,0,2.75,0c.25.1-.11.21-.78.32a48.15,48.15,0,0,0,4.78-.71c1.54.14,5.13-.48,5,0a30.77,30.77,0,0,1,4.05-.7c-2.51.74,5.22-.39,4.59.22,1.85-.62,6.8-.76,10.13-1.3a3.58,3.58,0,0,1-.85.16c1.89-.11,2.45,0,3.66,0,.21-.41,3.14-.73,4.7-1.09,2.34.19-1.37.56-.61.87-.14-.31,4-.63,3.17-.83a7.61,7.61,0,0,1,2.47.25c.27-.52,1.63-.21,3.07-.63,2.58,0,.7.41,3.49,0C128.57,312.81,126.09,313.18,126.09,313.18Zm66.65-5.89h0l-1.38.12Zm5.6-.41-2.43.16c-.2-.08,0-.19.57-.23C196.18,306.9,197.5,306.86,198.34,306.88Zm-12-1.07a3.27,3.27,0,0,1,1.31,0l-1.55.15-.1,0A1,1,0,0,1,186.34,305.81Z" transform="translate(-32.26 -1.99)"/><path class="cls-3" d="M184.77,306.29l-.36,0,.53,0,.31-.11Z" transform="translate(-32.26 -1.99)"/><path class="cls-3" d="M693.85,280.9h-.12a.85.85,0,0,1,.25,0Z" transform="translate(-32.26 -1.99)"/><polygon class="cls-3" points="243.58 300.12 243.57 300.05 243.08 300.15 243.58 300.12"/><path class="cls-3" d="M724.83,281a2.12,2.12,0,0,0,.41.06A1.85,1.85,0,0,0,724.83,281Z" transform="translate(-32.26 -1.99)"/><path class="cls-3" d="M738.21,280.76l1.89.05C739.28,280.78,738.68,280.76,738.21,280.76Z" transform="translate(-32.26 -1.99)"/><path class="cls-3" d="M748.49,280.65a.47.47,0,0,0,.2-.13h0Z" transform="translate(-32.26 -1.99)"/><path class="cls-3" d="M585.05,286l-.39,0C583.73,286.11,584.36,286.06,585.05,286Z" transform="translate(-32.26 -1.99)"/><path class="cls-3" d="M633.66,283.6c-.51.07-1,.13-1.56.18C633,283.78,633.64,283.76,633.66,283.6Z" transform="translate(-32.26 -1.99)"/><path class="cls-3" d="M530.77,288.5h0Z" transform="translate(-32.26 -1.99)"/><path class="cls-3" d="M629.84,283.85a17.67,17.67,0,0,0,2.26-.07C631.39,283.79,630.56,283.79,629.84,283.85Z" transform="translate(-32.26 -1.99)"/><path class="cls-3" d="M793.06,279.82h.5s0,0,.05-.05Z" transform="translate(-32.26 -1.99)"/><path class="cls-3" d="M793.61,279.77l.55,0A2.28,2.28,0,0,0,793.61,279.77Z" transform="translate(-32.26 -1.99)"/><path class="cls-3" d="M795.32,279.63l-1.16.1A4.91,4.91,0,0,0,795.32,279.63Z" transform="translate(-32.26 -1.99)"/><path class="cls-3" d="M779.45,280l-.16.1A.22.22,0,0,0,779.45,280Z" transform="translate(-32.26 -1.99)"/><path class="cls-3" d="M775.31,280.08c1,0,2.48.17,3.85.07l.13-.08C778.65,280.24,776.24,279.89,775.31,280.08Z" transform="translate(-32.26 -1.99)"/><path class="cls-3" d="M758,279.18h3.47c-.61-.09-1.41-.22.17-.28C757.27,278.67,762.56,279.12,758,279.18Z" transform="translate(-32.26 -1.99)"/><path class="cls-3" d="M747.26,279.29c1.86-.1,0-.16.07-.23C746.16,279.19,745.87,279.22,747.26,279.29Z" transform="translate(-32.26 -1.99)"/><path class="cls-3" d="M669.59,281.37l.18-.26C668.34,281.19,669.76,281.21,669.59,281.37Z" transform="translate(-32.26 -1.99)"/><polygon class="cls-3" points="622.53 281.17 623.93 281.28 624.59 281.03 622.53 281.17"/><polygon class="cls-3" points="613.71 279.64 614.33 279.58 611.94 279.75 613.71 279.64"/><path class="cls-3" d="M515.56,286.7l.45.3C517,286.9,517.16,286.53,515.56,286.7Z" transform="translate(-32.26 -1.99)"/><path class="cls-3" d="M459.3,289.64a10.38,10.38,0,0,0-3.18.05C457.39,289.65,458.66,289.71,459.3,289.64Z" transform="translate(-32.26 -1.99)"/><polygon class="cls-3" points="258.33 296.63 259.45 296.45 257.33 296.68 258.33 296.63"/></svg>